# xmcd
#
# Track frame offsets:
#  150
#  10740
#  30035
#  48444
#  71624
#  90840
#  113260
#  132698
#  151501
#  170098
#  195029
#
# Disc length: 2877 seconds
#
# Revision: 0
# Processed by: cddbd v1.5.1PL2 Copyright (c) Steve Scherf et al.
# Submitted via: AltoMP3_Maker 3.0
#
DISCID=6f0b3b0b
DTITLE=Mafalda Veiga - Ao vivo
DYEAR=1900
DGENRE=
TTITLE0=Balada de un Soldado
TTITLE1=Nazaré
TTITLE2=No Rasto do Sol
TTITLE3=Tatuagens
TTITLE4=Nalgum lugar perdido
TTITLE5=Lado a Lado
TTITLE6=Vertigem
TTITLE7=Escuro e Luar
TTITLE8=Uma noite para Comemorar
TTITLE9=Restolho
TTITLE10=Vertigem
EXTD=
EXTT0=
EXTT1=
EXTT2=
EXTT3=
EXTT4=
EXTT5=
EXTT6=
EXTT7=
EXTT8=
EXTT9=
EXTT10=
PLAYORDER=
